<svg width="12" height="10" viewBox="0 0 12 10" fill="none" xmlns="http://www.w3.org/2000/svg">
<path d="M11.7668 1.22932C11.7173 1.13508 11.643 1.05615 11.5519 1.00105C11.4608 0.945949 11.3564 0.916767 11.25 0.916656H0.749963C0.643705 0.917095 0.539577 0.946492 0.448777 1.00168C0.357977 1.05688 0.28394 1.13578 0.234628 1.2299C0.185317 1.32403 0.162596 1.42981 0.16891 1.53588C0.175224 1.64195 0.210334 1.7443 0.270463 1.83191L5.52046 9.41524C5.57398 9.49296 5.64559 9.55651 5.72912 9.60042C5.81265 9.64432 5.9056 9.66726 5.99996 9.66726C6.09433 9.66726 6.18728 9.64432 6.27081 9.60042C6.35434 9.55651 6.42595 9.49296 6.47946 9.41524L11.7295 1.83191C11.7902 1.74448 11.8258 1.64207 11.8323 1.53583C11.8389 1.42959 11.8163 1.32358 11.7668 1.22932ZM5.99996 8.05841L1.86296 2.08332H10.137L5.99996 8.05841Z" fill="#244BC5"/>
</svg>
