<svg width="26" height="18" viewBox="0 0 26 18" fill="none" xmlns="http://www.w3.org/2000/svg">
<path d="M9.0625 0.25C8.25127 0.253226 7.47418 0.576917 6.90055 1.15055C6.32692 1.72418 6.00323 2.50127 6 3.3125C6 4.99425 7.38075 6.375 9.0625 6.375C10.7443 6.375 12.125 4.99425 12.125 3.3125C12.125 1.63075 10.7443 0.25 9.0625 0.25ZM16.9375 0.25C16.1263 0.253226 15.3492 0.576917 14.7755 1.15055C14.2019 1.72418 13.8782 2.50127 13.875 3.3125C13.875 4.99425 15.2557 6.375 16.9375 6.375C18.6192 6.375 20 4.99425 20 3.3125C20 1.63075 18.6192 0.25 16.9375 0.25ZM9.0625 2C9.7975 2 10.375 2.5775 10.375 3.3125C10.375 4.0475 9.7975 4.625 9.0625 4.625C8.3275 4.625 7.75 4.0475 7.75 3.3125C7.75 2.5775 8.3275 2 9.0625 2ZM16.9375 2C17.6725 2 18.25 2.5775 18.25 3.3125C18.25 4.0475 17.6725 4.625 16.9375 4.625C16.2025 4.625 15.625 4.0475 15.625 3.3125C15.625 2.5775 16.2025 2 16.9375 2ZM5.125 5.5C3.2 5.5 1.625 7.075 1.625 9C1.625 9.97388 2.04237 10.8524 2.69162 11.4885C2.09603 11.8904 1.60776 12.4319 1.26934 13.0657C0.930923 13.6995 0.752632 14.4065 0.75 15.125H2.5C2.5 13.6655 3.6655 12.5 5.125 12.5C6.5845 12.5 7.75 13.6655 7.75 15.125H9.5C9.49737 14.4065 9.31908 13.6995 8.98066 13.0657C8.64224 12.4319 8.15397 11.8904 7.55838 11.4885C8.20762 10.8524 8.625 9.97475 8.625 9C8.625 7.075 7.05 5.5 5.125 5.5ZM9.5 15.125C8.95312 15.8565 8.625 16.7761 8.625 17.75H10.375C10.375 16.2905 11.5405 15.125 13 15.125C14.4595 15.125 15.625 16.2905 15.625 17.75H17.375C17.3735 16.8036 17.0666 15.883 16.5 15.125C16.2025 14.7286 15.8438 14.39 15.4334 14.1135C16.0826 13.4774 16.5 12.5997 16.5 11.625C16.5 9.7 14.925 8.125 13 8.125C11.075 8.125 9.5 9.7 9.5 11.625C9.5 12.5989 9.91737 13.4774 10.5666 14.1135C10.157 14.3886 9.79647 14.7306 9.5 15.125ZM16.5 15.125H18.25C18.25 13.6655 19.4155 12.5 20.875 12.5C22.3345 12.5 23.5 13.6655 23.5 15.125H25.25C25.2474 14.4065 25.0691 13.6995 24.7307 13.0657C24.3922 12.4319 23.904 11.8904 23.3084 11.4885C23.9576 10.8524 24.375 9.97475 24.375 9C24.375 7.075 22.8 5.5 20.875 5.5C18.95 5.5 17.375 7.075 17.375 9C17.375 9.97388 17.7924 10.8524 18.4416 11.4885C17.846 11.8904 17.3578 12.4319 17.0193 13.0657C16.6809 13.6995 16.5026 14.4065 16.5 15.125ZM5.125 7.25C6.10238 7.25 6.875 8.02262 6.875 9C6.875 9.97738 6.10238 10.75 5.125 10.75C4.14762 10.75 3.375 9.97738 3.375 9C3.375 8.02262 4.14762 7.25 5.125 7.25ZM20.875 7.25C21.8524 7.25 22.625 8.02262 22.625 9C22.625 9.97738 21.8524 10.75 20.875 10.75C19.8976 10.75 19.125 9.97738 19.125 9C19.125 8.02262 19.8976 7.25 20.875 7.25ZM13 9.875C13.9774 9.875 14.75 10.6476 14.75 11.625C14.75 12.6024 13.9774 13.375 13 13.375C12.0226 13.375 11.25 12.6024 11.25 11.625C11.25 10.6476 12.0226 9.875 13 9.875Z" fill="#007AFF"/>
</svg>
